<svg xmlns="http://www.w3.org/2000/svg" viewBox="0 0 64 64" width="64" height="64">
  <!-- Pixel art style barrel explosion -->
  <defs>
    <style>
      .pixel { shape-rendering: crispEdges; }
    </style>
  </defs>

  <!-- Background explosion glow (frame 1 of animation) -->
  <g class="pixel">
    <!-- Orange explosion core -->
    <rect x="24" y="24" width="16" height="16" fill="#ff6600"/>
    <rect x="20" y="28" width="24" height="8" fill="#ff8800"/>
    <rect x="28" y="20" width="8" height="24" fill="#ff8800"/>

    <!-- Yellow hot center -->
    <rect x="28" y="28" width="8" height="8" fill="#ffff00"/>
    <rect x="26" y="30" width="12" height="4" fill="#ffff88"/>
    <rect x="30" y="26" width="4" height="12" fill="#ffff88"/>

    <!-- Red outer flames -->
    <rect x="16" y="28" width="4" height="8" fill="#ff4400"/>
    <rect x="44" y="28" width="4" height="8" fill="#ff4400"/>
    <rect x="28" y="16" width="8" height="4" fill="#ff4400"/>
    <rect x="28" y="44" width="8" height="4" fill="#ff4400"/>

    <!-- Diagonal flames -->
    <rect x="20" y="20" width="4" height="4" fill="#ff6600"/>
    <rect x="40" y="20" width="4" height="4" fill="#ff6600"/>
    <rect x="20" y="40" width="4" height="4" fill="#ff6600"/>
    <rect x="40" y="40" width="4" height="4" fill="#ff6600"/>

    <!-- Barrel debris particles -->
    <!-- Metal barrel chunks (dark gray) -->
    <rect x="12" y="32" width="4" height="4" fill="#555555"/>
    <rect x="48" y="32" width="4" height="4" fill="#666666"/>
    <rect x="32" y="12" width="4" height="4" fill="#555555"/>
    <rect x="32" y="48" width="4" height="4" fill="#666666"/>

    <!-- Barrel rim pieces (lighter metal) -->
    <rect x="16" y="24" width="4" height="4" fill="#888888"/>
    <rect x="44" y="36" width="4" height="4" fill="#888888"/>

    <!-- Barrel stripe debris (colored) -->
    <rect x="8" y="28" width="4" height="4" fill="#cc0000"/>
    <rect x="52" y="36" width="4" height="4" fill="#cc0000"/>

    <!-- Smoke puffs (dark gray) -->
    <rect x="24" y="8" width="4" height="4" fill="#444444" opacity="0.8"/>
    <rect x="36" y="8" width="4" height="4" fill="#444444" opacity="0.8"/>
    <rect x="28" y="4" width="8" height="4" fill="#333333" opacity="0.6"/>

    <!-- Bottom smoke -->
    <rect x="24" y="52" width="4" height="4" fill="#444444" opacity="0.8"/>
    <rect x="36" y="52" width="4" height="4" fill="#444444" opacity="0.8"/>

    <!-- Sparkles/embers (bright yellow/white) -->
    <rect x="12" y="20" width="2" height="2" fill="#ffffff"/>
    <rect x="50" y="24" width="2" height="2" fill="#ffff00"/>
    <rect x="20" y="48" width="2" height="2" fill="#ffffff"/>
    <rect x="44" y="44" width="2" height="2" fill="#ffff00"/>
    <rect x="32" y="16" width="2" height="2" fill="#ffffff"/>

    <!-- Side sparkles -->
    <rect x="8" y="32" width="2" height="2" fill="#ffff00"/>
    <rect x="54" y="32" width="2" height="2" fill="#ffffff"/>

    <!-- Extra orange blast effect -->
    <rect x="20" y="24" width="4" height="4" fill="#ff8800" opacity="0.7"/>
    <rect x="40" y="36" width="4" height="4" fill="#ff8800" opacity="0.7"/>
    <rect x="24" y="40" width="4" height="4" fill="#ff8800" opacity="0.7"/>
    <rect x="36" y="24" width="4" height="4" fill="#ff8800" opacity="0.7"/>
  </g>
</svg>
